<?xml version="1.0" encoding="utf-8"?>
<!-- Generator: Adobe Illustrator 19.1.0, SVG Export Plug-In . SVG Version: 6.00 Build 0)  -->
<svg version="1.1" id="Layer_1" xmlns="http://www.w3.org/2000/svg" xmlns:xlink="http://www.w3.org/1999/xlink" x="0px" y="0px"
	 viewBox="-69 363.1 471.6 66.9" style="enable-background:new -69 363.1 471.6 66.9;" xml:space="preserve">
<style type="text/css">
	.st0{fill:#A54AFF;}
	.st1{fill:#FFBB56;}
	.st2{fill:#FF4A4A;}
	.st3{fill:#27CC5E;}
	.st4{fill:#FFFD1D;}
	.st5{fill:#278BCC;}
</style>
<g>
	<path d="M-45.1,363.4v65.7H-69v-65.7H-45.1z M-19.9,429.1H-44l24.1-29.3V429.1z M-29.1,380.9v28.6l-14.8-13.9L-29.1,380.9z
		 M-19.9,389.3l-23.7-25.9h23.5L-19.9,389.3z"/>
	<path d="M10.2,363.4L38,429.1H12l-28-65.7C-16,363.4,10.2,363.4,10.2,363.4z M-3.9,402.4l11.4,26.7h-23.1L-3.9,402.4z M38.3,363.4
		l-11.6,26.9l-11.8-26.9H38.3z"/>
	<path d="M67,363.4v65.7H43v-65.7H67z M78.6,363.4c11.2,0,18.7,7.8,18.7,19.4c0,11.7-7.5,19.5-18.7,19.5h-7.5v-38.9H78.6z"/>
	<path d="M217.2,403c2.3,2.8,3.6,6.9,3.6,10.4c0,9.2-6.5,15.9-15.5,15.9c-1.1,0-3-0.1-4.8-0.3c2-1.5,2.7-2.7,2.7-4
		c0-1.4-0.7-3.1-2-4.6l-22.2-28c-4.3-5.3-5.7-8.8-5.7-13.7c0-4.5,2-9.4,4.9-12.2c2.6-2.3,6.1-3.4,10.9-3.4c1.5,0,2.6,0.1,4.7,0.3
		c-2.3,2.1-2.8,3-2.8,4.4c0,1.6,0.4,2.3,2.8,5.3L217.2,403z M174.2,396.8l25.8,32.3h-25.8V396.8z M219,393.9l-24.4-30.5H219V393.9z"
		/>
	<path d="M253.9,363.4v66.7c-9.9-0.2-13.8-1.4-17.8-5.4c-4.7-4.6-6.1-8.9-6.1-19.1v-42.2H253.9z M282.2,363.4v42.1
		c0,7.8-0.6,10.8-2.6,14.5c-2.5,4.5-6,7.5-10.5,8.9c-2.7,0.8-5.3,1.1-10.8,1.2v-66.7H282.2z"/>
	<path d="M315.2,363.4v65.7h-23.9v-65.7H315.2z M319.4,363.4c1.9-0.1,3.4-0.1,4.8-0.1c11.8,0,19.3,6.6,19.3,17c0,9.8-6.5,16-16.6,16
		c-1.4,0-3.5-0.1-5.7-0.3l27.1,33h-28.8L319.4,363.4L319.4,363.4z"/>
	<path d="M377.4,363.4v65.7h-23.9v-65.7H377.4z M402.6,429.1h-24.1l24.1-29.3V429.1z M393.3,380.9v28.6l-14.8-13.9L393.3,380.9z
		 M402.6,389.3l-23.8-25.9h23.5L402.6,389.3z"/>
</g>
<g>
	<path class="st0" d="M158.1,372.1c-3.4-0.2-6.5,0.3-9.5,1.2c-6.3,2-11.5,5.6-16.1,10.2c-2.3,2.3-4.3,4.8-6.5,7.3
		c-0.2,0.3-0.5,0.6-0.9,1.1c-0.4-2.4-0.9-4.5-1.2-6.6c-0.7-4.7-0.5-9.4,1-14c0.8-2.5,2-4.9,3.7-7c0.3-0.3,0.7-0.7,1.2-0.7
		c10.6-1.6,19.9,1,28,8.1C157.7,371.7,157.8,371.8,158.1,372.1z"/>
	<path class="st1" d="M136.2,408c-6.7,6.5-14.1,11.7-24,11.7c-0.5,0-1.3-0.3-1.6-0.7c-4.8-5.3-7.6-11.4-8.5-18.5
		c-0.4-3.2-0.3-6.4,0.2-9.6c1.4,1.6,2.7,3.3,4.2,4.8c4.9,4.8,11,7.8,17.5,9.6C128.1,406.4,132.1,407.1,136.2,408z"/>
	<path class="st2" d="M124.8,364.8c-2.1,3.5-3.3,7.1-3.8,10.9c-0.8,6.4,0.1,12.7,2,18.8c0.9,2.8,1.9,5.5,3,8.5
		c-1.3-0.4-2.5-0.8-3.7-1.2c-6.2-2.2-11.9-5.2-15.9-10.6c-3.8-5-3.6-3.9-1-9.3c3.9-8.1,10.2-13.7,18.7-16.8
		C124.1,365,124.3,365,124.8,364.8z"/>
	<path class="st3" d="M146.2,428c1.9-3.3,3.1-6.8,3.6-10.5c0.7-5.1,0.3-10.2-1.1-15.2c-1.1-3.8-2.5-7.6-3.8-11.3
		c-0.1-0.3-0.2-0.5-0.3-0.9c0.2,0,0.3-0.1,0.4-0.1c6.6,1.7,12.6,4.4,17.4,9.5c1.9,2,3.4,4.4,4.4,6.9c0.2,0.4,0.2,0.9,0.1,1.3
		c-3.8,9.9-10.5,16.6-20.3,20.3C146.5,428,146.4,428,146.2,428z"/>
	<path class="st4" d="M114.4,422.5c9-0.9,16.2-5.3,22.4-11.4c3.1-3,5.8-6.4,8.7-9.7c0.1,0.4,0.3,1,0.4,1.5
		c1.4,5.7,1.8,11.4,0.4,17.2c-0.8,3.2-2.2,6-4.2,8.6c-0.3,0.3-0.8,0.6-1.2,0.7c-9.7,1.6-18.5-0.6-26.4-6.6
		C114.6,422.8,114.6,422.7,114.4,422.5z"/>
	<path class="st5" d="M168.1,402.8c-5.6-9.4-14.3-13.5-24.1-15.8c-2.8-0.7-5.7-0.9-8.5-1.4c-0.2,0-0.5-0.1-1-0.2
		c1.1-0.9,1.9-1.8,2.9-2.5c4.6-3.8,9.7-6.8,15.7-7.6c2.5-0.3,5,0,7.6,0.1c0.3,0,0.7,0.3,0.9,0.6c4.4,5.7,6.9,12.1,7.1,19.3
		c0,2.1-0.1,4.2-0.3,6.3C168.4,401.8,168.2,402.2,168.1,402.8z"/>
</g>
</svg>
