<?xml version="1.0" encoding="utf-8"?>
<!-- Generator: Adobe Illustrator 18.1.1, SVG Export Plug-In . SVG Version: 6.00 Build 0)  -->
<svg version="1.1" id="Layer_1" xmlns="http://www.w3.org/2000/svg" xmlns:xlink="http://www.w3.org/1999/xlink" x="0px" y="0px"
	 viewBox="0 0 471.6 66.9" enable-background="new 0 0 471.6 66.9" xml:space="preserve">
<g>
	<path d="M23.9,0.3V66H0V0.3H23.9z M49.1,66H25l24.1-29.3V66z M39.9,17.8v28.6L25.1,32.5L39.9,17.8z M49.1,26.2L25.4,0.3h23.5
		L49.1,26.2z"/>
	<path d="M79.2,0.3L107,66H81l-28-65.7H79.2z M65.1,39.3L76.5,66H53.4L65.1,39.3z M107.3,0.3L95.7,27.2L83.9,0.3H107.3z"/>
	<path d="M136,0.3V66H112V0.3H136z M147.6,0.3c11.2,0,18.7,7.8,18.7,19.4c0,11.7-7.5,19.5-18.7,19.5h-7.5V0.3H147.6z"/>
	<path d="M286.2,39.9c2.3,2.8,3.6,6.9,3.6,10.4c0,9.2-6.5,15.9-15.5,15.9c-1.1,0-3-0.1-4.8-0.3c2-1.5,2.7-2.7,2.7-4
		c0-1.4-0.7-3.1-2-4.6l-22.2-28c-4.3-5.3-5.7-8.8-5.7-13.7c0-4.5,2-9.4,4.9-12.2c2.6-2.3,6.1-3.4,10.9-3.4c1.5,0,2.6,0.1,4.7,0.3
		c-2.3,2.1-2.8,3-2.8,4.4c0,1.6,0.4,2.3,2.8,5.3L286.2,39.9z M243.2,33.7L269,66h-25.8V33.7z M288,30.8L263.6,0.3H288V30.8z"/>
	<path d="M322.9,0.3v66.7c-9.9-0.2-13.8-1.4-17.8-5.4c-4.7-4.6-6.1-8.9-6.1-19.1V0.3H322.9z M351.2,0.3v42.1
		c0,7.8-0.6,10.8-2.6,14.5c-2.5,4.5-6,7.5-10.5,8.9c-2.7,0.8-5.3,1.1-10.8,1.2V0.3H351.2z"/>
	<path d="M384.2,0.3V66h-23.9V0.3H384.2z M388.4,0.3c1.9-0.1,3.4-0.1,4.8-0.1c11.8,0,19.3,6.6,19.3,17c0,9.8-6.5,16-16.6,16
		c-1.4,0-3.5-0.1-5.7-0.3l27.1,33h-28.8V0.3z"/>
	<path d="M446.4,0.3V66h-23.9V0.3H446.4z M471.6,66h-24.1l24.1-29.3V66z M462.3,17.8v28.6l-14.8-13.9L462.3,17.8z M471.6,26.2
		L447.8,0.3h23.5L471.6,26.2z"/>
</g>
<g>
	<path fill-rule="evenodd" clip-rule="evenodd" d="M181.5,57.9c3.4,0.2,6.5-0.3,9.5-1.2c6.3-2,11.5-5.6,16.1-10.2
		c2.3-2.3,4.3-4.8,6.5-7.3c0.2-0.3,0.5-0.6,0.9-1.1c0.4,2.4,0.9,4.5,1.2,6.6c0.7,4.7,0.5,9.4-1,14c-0.8,2.5-2,4.9-3.7,7
		c-0.3,0.3-0.7,0.7-1.2,0.7c-10.6,1.6-19.9-1-28-8.1C181.9,58.3,181.8,58.2,181.5,57.9z"/>
	<path fill-rule="evenodd" clip-rule="evenodd" d="M203.4,22c6.7-6.5,14.1-11.7,24-11.7c0.5,0,1.3,0.3,1.6,0.7
		c4.8,5.3,7.6,11.4,8.5,18.5c0.4,3.2,0.3,6.4-0.2,9.6c-1.4-1.6-2.7-3.3-4.2-4.8c-4.9-4.8-11-7.8-17.5-9.6
		C211.5,23.6,207.5,22.9,203.4,22z"/>
	<path fill-rule="evenodd" clip-rule="evenodd" d="M214.8,65.2c2.1-3.5,3.3-7.1,3.8-10.9c0.8-6.4-0.1-12.7-2-18.8
		c-0.9-2.8-1.9-5.5-3-8.5c1.3,0.4,2.5,0.8,3.7,1.2c6.2,2.2,11.9,5.2,15.9,10.6c3.8,5,3.6,3.9,1,9.3c-3.9,8.1-10.2,13.7-18.7,16.8
		C215.5,65,215.3,65,214.8,65.2z"/>
	<path fill-rule="evenodd" clip-rule="evenodd" d="M193.4,2c-1.9,3.3-3.1,6.8-3.6,10.5c-0.7,5.1-0.3,10.2,1.1,15.2
		c1.1,3.8,2.5,7.6,3.8,11.3c0.1,0.3,0.2,0.5,0.3,0.9c-0.2,0-0.3,0.1-0.4,0.1c-6.6-1.7-12.6-4.4-17.4-9.5c-1.9-2-3.4-4.4-4.4-6.9
		c-0.2-0.4-0.2-0.9-0.1-1.3C176.5,12.4,183.2,5.7,193,2C193.1,2,193.2,2,193.4,2z"/>
	<path fill-rule="evenodd" clip-rule="evenodd" d="M225.2,7.5c-9,0.9-16.2,5.3-22.4,11.4c-3.1,3-5.8,6.4-8.7,9.7
		c-0.1-0.4-0.3-1-0.4-1.5c-1.4-5.7-1.8-11.4-0.4-17.2c0.8-3.2,2.2-6,4.2-8.6c0.3-0.3,0.8-0.6,1.2-0.7c9.7-1.6,18.5,0.6,26.4,6.6
		C225,7.2,225,7.3,225.2,7.5z"/>
	<path fill-rule="evenodd" clip-rule="evenodd" d="M171.5,27.2c5.6,9.4,14.3,13.5,24.1,15.8c2.8,0.7,5.7,0.9,8.5,1.4
		c0.2,0,0.5,0.1,1,0.2c-1.1,0.9-1.9,1.8-2.9,2.5c-4.6,3.8-9.7,6.8-15.7,7.6c-2.5,0.3-5,0-7.6-0.1c-0.3,0-0.7-0.3-0.9-0.6
		c-4.4-5.7-6.9-12.1-7.1-19.3c0-2.1,0.1-4.2,0.3-6.3C171.2,28.2,171.4,27.8,171.5,27.2z"/>
</g>
</svg>
