<?xml version="1.0" encoding="utf-8"?>
<!-- Generator: Adobe Illustrator 19.1.0, SVG Export Plug-In . SVG Version: 6.00 Build 0)  -->
<svg version="1.1" xmlns="http://www.w3.org/2000/svg" xmlns:xlink="http://www.w3.org/1999/xlink" x="0px" y="0px"
	 viewBox="0 0 200 200" style="enable-background:new 0 0 200 200;" xml:space="preserve">
<style type="text/css">
	.st0{fill:#143949;}
	.st1{fill:#FFFFFF;}
</style>
<g id="Layer_1">
</g>
<g id="Layer_2">
	<circle class="st0" cx="100" cy="100" r="100"/>
	<g>
		<path class="st1" d="M40.3,40.6c0,0,3,0.7,7.9,2.3c2.4,0.8,5.3,1.8,8.6,3.1c1.6,0.6,3.3,1.3,5.1,2.1c0.5,0.2,0.9,0.4,1.2,0.7
			c0.3,0.3,0.6,0.7,0.9,1.1c0.5,0.8,1.3,1.4,2,2.1c11.2,11.1,26,25.9,40.9,40.7s29.8,29.6,40.9,40.7c0.3,0.3,0.7,0.7,1,1
			c0.3,0.3,0.7,0.7,1.1,0.9c0.4,0.3,0.8,0.5,1.1,0.9c0.3,0.3,0.5,0.8,0.7,1.2c0.7,1.8,1.4,3.5,2.1,5.1c1.3,3.3,2.3,6.1,3.2,8.6
			c1.7,4.8,2.4,7.8,2.4,7.8s-3-0.8-7.8-2.4c-2.4-0.8-5.3-1.9-8.6-3.1c-1.6-0.6-3.3-1.3-5.1-2.1c-0.5-0.2-0.9-0.4-1.3-0.7
			c-0.4-0.3-0.6-0.7-0.9-1.1c-0.3-0.4-0.6-0.7-1-1.1c-0.3-0.3-0.7-0.7-1-1c-11.2-11.1-26-25.9-40.9-40.7S63,77.3,51.8,66.2
			c-0.7-0.7-1.3-1.4-2.1-2c-0.4-0.3-0.8-0.5-1.1-0.9c-0.3-0.3-0.6-0.7-0.7-1.2c-0.7-1.8-1.4-3.5-2.1-5.1c-1.3-3.3-2.3-6.2-3.1-8.6
			C41,43.6,40.3,40.6,40.3,40.6z"/>
	</g>
	<g>
		<path class="st1" d="M40.3,159.4c0,0,0.7-3,2.4-7.9c0.8-2.4,1.9-5.3,3.2-8.6c0.7-1.6,1.4-3.3,2.1-5.1c0.2-0.5,0.4-0.9,0.7-1.2
			c0.3-0.3,0.7-0.6,1.1-0.9c0.8-0.5,1.4-1.3,2.1-2c11.2-11.1,26.1-26,41.1-40.9S122.8,63.2,134,52c0.3-0.3,0.7-0.7,1-1
			c0.3-0.3,0.7-0.7,1-1.1c0.3-0.4,0.5-0.8,0.9-1.1c0.3-0.3,0.8-0.5,1.3-0.7c1.8-0.7,3.5-1.4,5.2-2.1c3.3-1.3,6.2-2.3,8.6-3.1
			c4.9-1.7,7.8-2.4,7.8-2.4s-0.8,3-2.4,7.8c-0.8,2.4-1.9,5.3-3.2,8.6c-0.6,1.6-1.4,3.3-2.1,5.1c-0.2,0.5-0.4,0.9-0.7,1.3
			c-0.3,0.4-0.7,0.6-1.1,0.9c-0.4,0.3-0.7,0.6-1.1,0.9c-0.3,0.3-0.7,0.7-1,1c-11.2,11.1-26.1,26-41.1,40.9S77.2,136.8,66,148
			c-0.7,0.7-1.4,1.3-2,2.1c-0.3,0.4-0.5,0.8-0.9,1.1c-0.3,0.3-0.7,0.6-1.2,0.7c-1.8,0.7-3.5,1.4-5.1,2.1c-3.3,1.3-6.2,2.3-8.6,3.1
			C43.3,158.7,40.3,159.4,40.3,159.4z"/>
	</g>
</g>
</svg>
