<?xml version="1.0" encoding="utf-8"?>
<!-- Generator: Adobe Illustrator 19.1.0, SVG Export Plug-In . SVG Version: 6.00 Build 0)  -->
<svg version="1.1" id="Layer_1" xmlns="http://www.w3.org/2000/svg" xmlns:xlink="http://www.w3.org/1999/xlink" x="0px" y="0px"
	 viewBox="307 -102 813 405" style="enable-background:new 307 -102 813 405;" xml:space="preserve">
<style type="text/css">
	.st0{fill:#FFFFFF;}
</style>
<circle cx="917.5" cy="100.5" r="202.5"/>
<circle cx="509.5" cy="100.5" r="202.5"/>
<rect x="509.5" y="-102" width="408" height="405"/>
<g id="Layer_2">
</g>
<g>
	<path class="st0" d="M454.2,134.5c-5.3,1.9-15.7,5-28,5c-13.8,0-25.2-3.5-34.1-12.1c-7.9-7.6-12.7-19.8-12.7-34
		c0.1-27.2,18.8-47.1,49.5-47.1c10.6,0,18.8,2.3,22.8,4.2l-2.8,9.6c-4.9-2.2-11-3.9-20.2-3.9c-22.2,0-36.7,13.8-36.7,36.7
		c0,23.2,14,36.9,35.2,36.9c7.7,0,13-1.1,15.7-2.4v-27.2h-18.6v-9.5h30.1V134.5z"/>
	<path class="st0" d="M479.1,107.9c0.3,16.1,10.6,22.8,22.5,22.8c8.5,0,13.7-1.5,18.2-3.4l2,8.5c-4.2,1.9-11.4,4.1-21.8,4.1
		c-20.2,0-32.2-13.3-32.2-33.1s11.7-35.4,30.8-35.4c21.4,0,27.1,18.8,27.1,30.9c0,2.4-0.3,4.3-0.4,5.6H479.1z M514.1,99.4
		c0.1-7.6-3.1-19.4-16.5-19.4c-12.1,0-17.3,11.1-18.3,19.4H514.1z"/>
	<path class="st0" d="M554.7,54.1V73h17.1V82h-17.1v35.4c0,8.1,2.3,12.7,8.9,12.7c3.1,0,5.4-0.4,6.9-0.8l0.5,8.9
		c-2.3,0.9-6,1.6-10.6,1.6c-5.6,0-10-1.8-12.9-5c-3.4-3.5-4.6-9.3-4.6-17.1V82h-10.2V73h10.2V57.2L554.7,54.1z"/>
	<path class="st0" d="M612.7,124.2c5.3,3.3,13,6,21.1,6c12.1,0,19.1-6.4,19.1-15.6c0-8.5-4.9-13.4-17.2-18.2
		c-14.9-5.3-24.1-13-24.1-25.9c0-14.2,11.8-24.8,29.5-24.8c9.3,0,16.1,2.2,20.2,4.5l-3.3,9.6c-3-1.6-9.1-4.3-17.3-4.3
		c-12.5,0-17.2,7.5-17.2,13.7c0,8.5,5.6,12.7,18.2,17.6c15.4,6,23.3,13.4,23.3,26.8c0,14.1-10.4,26.3-32,26.3
		c-8.8,0-18.4-2.6-23.3-5.8L612.7,124.2z"/>
	<path class="st0" d="M694.7,54.1V73h17.1V82h-17.1v35.4c0,8.1,2.3,12.7,8.9,12.7c3.1,0,5.4-0.4,6.9-0.8l0.5,8.9
		c-2.3,0.9-6,1.6-10.6,1.6c-5.6,0-10-1.8-12.9-5c-3.4-3.5-4.6-9.3-4.6-17.1V82h-10.2V73H683V57.2L694.7,54.1z"/>
	<path class="st0" d="M761.5,138.5l-0.9-8.3h-0.4c-3.7,5.1-10.7,9.8-20.1,9.8c-13.3,0-20.1-9.3-20.1-18.8
		c0-15.9,14.1-24.5,39.4-24.4v-1.4c0-5.4-1.5-15.2-14.9-15.2c-6.1,0-12.5,1.9-17.1,4.9l-2.7-7.9c5.4-3.5,13.3-5.8,21.5-5.8
		c20.1,0,24.9,13.7,24.9,26.8v24.5c0,5.7,0.3,11.2,1.1,15.7H761.5z M759.7,105.1c-13-0.3-27.8,2-27.8,14.8c0,7.7,5.1,11.4,11.2,11.4
		c8.5,0,14-5.4,15.9-11c0.4-1.2,0.7-2.6,0.7-3.8V105.1z"/>
	<path class="st0" d="M790.5,93.4c0-7.7-0.1-14.4-0.5-20.5h10.4l0.4,12.9h0.5c3-8.8,10.2-14.4,18.2-14.4c1.4,0,2.3,0.1,3.4,0.4v11.2
		c-1.2-0.3-2.4-0.4-4.1-0.4c-8.4,0-14.4,6.4-16,15.3c-0.3,1.6-0.5,3.5-0.5,5.6v35h-11.8V93.4z"/>
	<path class="st0" d="M852.4,54.1V73h17.1V82h-17.1v35.4c0,8.1,2.3,12.7,8.9,12.7c3.1,0,5.4-0.4,6.9-0.8l0.5,8.9
		c-2.3,0.9-6,1.6-10.6,1.6c-5.6,0-10-1.8-12.9-5c-3.4-3.5-4.6-9.3-4.6-17.1V82h-10.2V73h10.2V57.2L852.4,54.1z"/>
	<path class="st0" d="M888.7,107.9c0.3,16.1,10.6,22.8,22.5,22.8c8.5,0,13.7-1.5,18.2-3.4l2,8.5c-4.2,1.9-11.4,4.1-21.8,4.1
		c-20.2,0-32.2-13.3-32.2-33.1s11.7-35.4,30.8-35.4c21.4,0,27.1,18.8,27.1,30.9c0,2.4-0.3,4.3-0.4,5.6H888.7z M923.6,99.4
		c0.1-7.6-3.1-19.4-16.5-19.4c-12.1,0-17.3,11.1-18.3,19.4H923.6z"/>
	<path class="st0" d="M1006.6,42.3v79.3c0,5.8,0.1,12.5,0.5,16.9h-10.7l-0.5-11.4h-0.3c-3.7,7.3-11.7,12.9-22.4,12.9
		c-15.9,0-28-13.4-28-33.3c-0.1-21.8,13.4-35.2,29.4-35.2c10,0,16.8,4.7,19.8,10h0.3V42.3H1006.6z M994.6,99.6c0-1.5-0.1-3.5-0.5-5
		c-1.8-7.6-8.3-13.8-17.2-13.8c-12.3,0-19.6,10.8-19.6,25.3c0,13.3,6.5,24.3,19.4,24.3c8,0,15.3-5.3,17.5-14.2
		c0.4-1.6,0.5-3.3,0.5-5.1V99.6z"/>
	<path class="st0" d="M1024,131.6c0-4.9,3.4-8.4,8-8.4c4.9,0,8,3.5,8,8.4c0,4.7-3.1,8.4-8,8.4C1027.3,140,1024,136.4,1024,131.6z
		 M1027.4,112.2l-1.9-65h13l-1.9,65H1027.4z"/>
</g>
</svg>
