<?xml version="1.0" encoding="utf-8"?>
<!-- Generator: Adobe Illustrator 19.1.0, SVG Export Plug-In . SVG Version: 6.00 Build 0)  -->
<svg version="1.1" id="Layer_1" xmlns="http://www.w3.org/2000/svg" xmlns:xlink="http://www.w3.org/1999/xlink" x="0px" y="0px"
	 viewBox="0 0 66.8 66.8" style="enable-background:new 0 0 66.8 66.8;" xml:space="preserve">
<style type="text/css">
	.st0{fill:#825DA7;}
	.st1{fill:#FDBB57;}
	.st2{fill:#F04E4E;}
	.st3{fill:#4EB95E;}
	.st4{fill:#F8ED2D;}
	.st5{fill:#2B8BCB;}
</style>
<g>
	<g>
		<path class="st0" d="M56.2,9c-3.4-0.2-6.5,0.3-9.5,1.2c-6.3,2-11.5,5.6-16.1,10.2c-2.3,2.3-4.3,4.8-6.5,7.3
			c-0.2,0.3-0.5,0.6-0.9,1.1c-0.4-2.4-0.9-4.5-1.2-6.6c-0.7-4.7-0.5-9.4,1-14c0.8-2.5,2-4.9,3.7-7c0.3-0.3,0.7-0.7,1.2-0.7
			c10.6-1.6,19.9,1,28,8.1C55.8,8.6,55.9,8.7,56.2,9z"/>
		<path class="st1" d="M34.3,44.9c-6.7,6.5-14.1,11.7-24,11.7c-0.5,0-1.3-0.3-1.6-0.7c-4.8-5.3-7.6-11.4-8.5-18.5
			c-0.4-3.2-0.3-6.4,0.2-9.6c1.4,1.6,2.7,3.3,4.2,4.8c4.9,4.8,11,7.8,17.5,9.6C26.2,43.3,30.2,44,34.3,44.9z"/>
		<path class="st2" d="M22.9,1.7c-2.1,3.5-3.3,7.1-3.8,10.9c-0.8,6.4,0.1,12.7,2,18.8c0.9,2.8,1.9,5.5,3,8.5
			c-1.3-0.4-2.5-0.8-3.7-1.2c-6.2-2.2-11.9-5.2-15.9-10.6c-3.8-5-3.6-3.9-1-9.3C7.4,10.7,13.7,5.1,22.2,2
			C22.2,1.9,22.4,1.9,22.9,1.7z"/>
		<path class="st3" d="M44.3,64.9c1.9-3.3,3.1-6.8,3.6-10.5c0.7-5.1,0.3-10.2-1.1-15.2c-1.1-3.8-2.5-7.6-3.8-11.3
			c-0.1-0.3-0.2-0.5-0.3-0.9c0.2,0,0.3-0.1,0.4-0.1c6.6,1.7,12.6,4.4,17.4,9.5c1.9,2,3.4,4.4,4.4,6.9c0.2,0.4,0.2,0.9,0.1,1.3
			c-3.8,9.9-10.5,16.6-20.3,20.3C44.6,64.9,44.5,64.9,44.3,64.9z"/>
		<path class="st4" d="M12.5,59.4c9-0.9,16.2-5.3,22.4-11.4c3.1-3,5.8-6.4,8.7-9.7c0.1,0.4,0.3,1,0.4,1.5c1.4,5.7,1.8,11.4,0.4,17.2
			c-0.8,3.2-2.2,6-4.2,8.6c-0.3,0.3-0.8,0.6-1.2,0.7c-9.7,1.6-18.5-0.6-26.4-6.6C12.7,59.7,12.7,59.6,12.5,59.4z"/>
		<path class="st5" d="M66.2,39.7c-5.6-9.4-14.3-13.5-24.1-15.8c-2.8-0.7-5.7-0.9-8.5-1.4c-0.2,0-0.5-0.1-1-0.2
			c1.1-0.9,1.9-1.8,2.9-2.5c4.6-3.8,9.7-6.8,15.7-7.6c2.5-0.3,5,0,7.6,0.1c0.3,0,0.7,0.3,0.9,0.6c4.4,5.7,6.9,12.1,7.1,19.3
			c0,2.1-0.1,4.2-0.3,6.3C66.5,38.7,66.3,39.1,66.2,39.7z"/>
	</g>
</g>
</svg>
