<?xml version="1.0" encoding="utf-8"?>
<!-- Generator: Adobe Illustrator 19.1.0, SVG Export Plug-In . SVG Version: 6.00 Build 0)  -->
<svg version="1.1" id="Layer_1" xmlns="http://www.w3.org/2000/svg" xmlns:xlink="http://www.w3.org/1999/xlink" x="0px" y="0px"
	 viewBox="0 0 162 158" style="enable-background:new 0 0 162 158;" xml:space="preserve">
<style type="text/css">
	.st0{fill-rule:evenodd;clip-rule:evenodd;fill:#191717;}
</style>
<path class="st0" d="M81,0C36.3,0,0,36.3,0,81c0,35.8,23.2,66.1,55.4,76.9c4.1,0.7,5.5-1.8,5.5-3.9c0-1.9-0.1-7-0.1-13.8
	c-22.5,4.9-27.3-10.9-27.3-10.9c-3.7-9.4-9-11.8-9-11.8c-7.4-5,0.6-4.9,0.6-4.9c8.1,0.6,12.4,8.3,12.4,8.3c7.2,12.4,19,8.8,23.6,6.7
	c0.7-5.2,2.8-8.8,5.1-10.8c-18-2-36.9-9-36.9-40c0-8.8,3.2-16.1,8.3-21.7c-0.8-2-3.6-10.3,0.8-21.4c0,0,6.8-2.2,22.3,8.3
	c6.5-1.8,13.4-2.7,20.3-2.7c6.9,0,13.8,0.9,20.3,2.7c15.5-10.5,22.3-8.3,22.3-8.3c4.4,11.2,1.6,19.4,0.8,21.4
	c5.2,5.7,8.3,12.9,8.3,21.7c0,31.1-18.9,38-37,40c2.9,2.5,5.5,7.4,5.5,15c0,10.8-0.1,19.6-0.1,22.2c0,2.2,1.5,4.7,5.6,3.9
	C138.8,147.1,162,116.8,162,81C162,36.3,125.7,0,81,0z"/>
</svg>
