<?xml version="1.0" encoding="utf-8"?>
<!-- Generator: Adobe Illustrator 19.1.0, SVG Export Plug-In . SVG Version: 6.00 Build 0)  -->
<svg version="1.1" id="Layer_1" xmlns="http://www.w3.org/2000/svg" xmlns:xlink="http://www.w3.org/1999/xlink" x="0px" y="0px"
	 viewBox="-305 -102 813 405" style="enable-background:new -305 -102 813 405;" xml:space="preserve">
<style type="text/css">
	.st0{fill:#598AD8;}
	.st1{fill:#FFFFFF;}
</style>
<circle class="st0" cx="305.5" cy="100.5" r="202.5"/>
<circle class="st0" cx="-102.5" cy="100.5" r="202.5"/>
<rect x="-102.5" y="-102" class="st0" width="408" height="405"/>
<g id="Layer_2">
</g>
<path class="st1" d="M443.7,13.2c-10.1,4.5-20.9,7.5-32.2,8.8c11.6-6.9,20.5-17.9,24.7-31c-10.8,6.4-22.8,11.1-35.6,13.6
	c-10.2-10.9-24.8-17.7-40.9-17.7c-31,0-56.1,25.1-56.1,56.1c0,4.4,0.5,8.7,1.5,12.8c-46.6-2.3-87.9-24.7-115.6-58.6
	c-4.8,8.3-7.6,17.9-7.6,28.2c0,19.5,9.9,36.6,25,46.7c-9.2-0.3-17.8-2.8-25.4-7c0,0.2,0,0.5,0,0.7c0,27.2,19.3,49.8,45,55
	c-4.7,1.3-9.7,2-14.8,2c-3.6,0-7.1-0.4-10.6-1c7.1,22.3,27.9,38.5,52.4,39c-19.2,15-43.4,24-69.7,24c-4.5,0-9-0.3-13.4-0.8
	c24.8,15.9,54.3,25.2,86,25.2c103.2,0,159.6-85.5,159.6-159.6c0-2.4-0.1-4.9-0.2-7.3C426.7,34.4,436.2,24.5,443.7,13.2z"/>
<g>
	<path class="st1" d="M-242.6,137.6V74.9h-10.2V64.8h10.2v-3.5c0-10.2,2.3-19.6,8.4-25.4c5-4.8,11.6-6.8,17.8-6.8
		c4.7,0,8.7,1.1,11.3,2.1l-1.8,10.2c-2-0.9-4.7-1.7-8.4-1.7c-11.3,0-14.1,9.9-14.1,21.1v3.9h17.6v10.1h-17.6v62.7H-242.6z"/>
	<path class="st1" d="M-136.1,100.6c0,26.9-18.7,38.7-36.3,38.7c-19.7,0-34.9-14.4-34.9-37.5c0-24.4,15.9-38.7,36.1-38.7
		C-150.2,63.1-136.1,78.3-136.1,100.6z M-193.9,101.3c0,15.9,9.2,28,22.1,28c12.6,0,22.1-11.9,22.1-28.3c0-12.3-6.2-28-21.8-28
		S-193.9,87.5-193.9,101.3z"/>
	<path class="st1" d="M-119.4,30.8h13.2v106.8h-13.2V30.8z"/>
	<path class="st1" d="M-83.9,30.8h13.2v106.8h-13.2V30.8z"/>
	<path class="st1" d="M17.5,100.6c0,26.9-18.7,38.7-36.3,38.7c-19.7,0-34.9-14.4-34.9-37.5c0-24.4,15.9-38.7,36.1-38.7
		C3.4,63.1,17.5,78.3,17.5,100.6z M-40.2,101.3c0,15.9,9.2,28,22.1,28C-5.5,129.3,4,117.4,4,101c0-12.3-6.2-28-21.8-28
		S-40.2,87.5-40.2,101.3z"/>
	<path class="st1" d="M38.4,64.8l9.6,37c2.1,8.1,4.1,15.6,5.4,23.2h0.5c1.7-7.4,4.1-15.2,6.5-23l11.9-37.2h11.1l11.3,36.4
		c2.7,8.7,4.8,16.4,6.5,23.8h0.5c1.2-7.4,3.2-15,5.6-23.6l10.4-36.6h13.1l-23.5,72.8h-12L84,102.8c-2.6-8.1-4.7-15.3-6.5-23.9h-0.3
		c-1.8,8.7-4.1,16.3-6.6,24.1l-11.7,34.6h-12l-22-72.8H38.4z"/>
</g>
</svg>
